<?xml version="1.0" encoding="utf-8"?><svg xmlns="http://www.w3.org/2000/svg" width="280" height="250" preserveAspectRatio="xMidYMid" xmlns:xlink="http://www.w3.org/1999/xlink" style="margin-right:-2px;display:block;background-repeat-y:initial;background-repeat-x:initial;background-color:rgb(255, 251, 243);animation-play-state:paused" ><style type="text/css" style="animation-play-state:paused" >text {
    text-anchor: middle; font-size: 80px; opacity: 0;
  }</style>


<g style="transform-origin:32px 32px;transform:matrix(1, 0, 0, 1, 0, 0);animation-play-state:paused" ><g transform="translate(140,125)" style="transform:matrix(1, 0, 0, 1, 140, 125);animation-play-state:paused" ><g transform="translate(0,0)" style="transform:matrix(1, 0, 0, 1, 0, 0);animation-play-state:paused" ><g class="path" style="transform-origin:1.12px 10.2752px;transform:matrix(0.91, 0, 0, 0.91, 0, 0);animation-timing-function:linear;animation-play-state:paused;animation-name:breath-062e7c81-9be4-4c88-8703-80da33e84c40;animation-iteration-count:infinite;animation-fill-mode:forwards;animation-duration:1s" ><path d="M31.76-47.04L31.76-47.04L31.76-47.04Q24.80-47.04 20.40-42.48L20.40-42.48L20.40-42.48Q16-37.92 16-30.72L16-30.72L14.32-30.72L14.32-30.72Q14.32-38.64 19.20-43.68L19.20-43.68L19.20-43.68Q24.08-48.72 31.76-48.72L31.76-48.72L31.76-48.72Q34.56-48.72 37.12-48.08L37.12-48.08L37.12-48.08Q39.68-47.44 40.92-46.80L40.92-46.80L40.92-46.80Q42.16-46.16 44.84-44.68L44.84-44.68L44.84-44.68Q47.52-43.20 49.20-42.44L49.20-42.44L49.20-42.44Q50.88-41.68 54.52-40.84L54.52-40.84L54.52-40.84Q58.16-40 62.56-40L62.56-40L62.56-38.32L62.56-38.32Q60-38.32 57.84-38.56L57.84-38.56L57.84-38.56Q57.20-37.92 56.24-36.60L56.24-36.60L56.24-36.60Q55.28-35.28 52.96-30.20L52.96-30.20L52.96-30.20Q50.64-25.12 48.48-18.24L48.48-18.24L56.96-18.24L56.80-16.80L48.08-16.80L48.08-16.80Q46.72-12.40 45.64-7.80L45.64-7.80L45.64-7.80Q44.56-3.20 42.88 1.16L42.88 1.16L42.88 1.16Q41.20 5.52 38.40 9.76L38.40 9.76L38.40 9.76Q32.56 18.32 20.72 18.32L20.72 18.32L20.72 18.32Q11.36 18.32 6.24 12.28L6.24 12.28L6.24 12.28Q1.12 6.24 1.12-1.20L1.12-1.20L1.12-1.20Q1.12-2.16 1.20-3.20L1.20-3.20L3.04-3.20L3.04-3.20Q2.96-2.24 2.96-1.36L2.96-1.36L2.96-1.36Q2.96 5.92 7.72 11.28L7.72 11.28L7.72 11.28Q12.48 16.64 20.72 16.64L20.72 16.64L20.72 16.64Q28.24 16.64 32.32 5.60L32.32 5.60L32.32 5.60Q34.72-0.96 36.28-7.92L36.28-7.92L36.28-7.92Q37.84-14.88 38.40-16.80L38.40-16.80L29.60-16.80L29.76-18.24L38.72-18.24L38.72-18.24Q41.52-28.88 44.24-33.96L44.24-33.96L44.24-33.96Q46.96-39.04 50.56-40.08L50.56-40.08L50.56-40.08Q47.76-41.04 44.60-42.88L44.60-42.88L44.60-42.88Q41.44-44.72 40.24-45.28L40.24-45.28L40.24-45.28Q36.48-47.04 31.76-47.04" fill="#51cacc" stroke="none" stroke-width="none" transform="translate(-30.720001220703125,25.47520324707031)" style="transform:matrix(1, 0, 0, 1, -30.72, 25.4752);fill:rgb(81, 202, 204);animation-play-state:paused" ></path></g></g></g></g></svg>